<svg xmlns="http://www.w3.org/2000/svg" viewBox="0 0 32 32"><circle cx="16" cy="16" r="16" fill="#000000"/><path d="M9.925 19.687a.59.59 0 0 1 .415-.17h14.366a.29.29 0 0 1 .207.497l-2.838 2.815a.59.59 0 0 1-.415.171H7.294a.29.29 0 0 1-.207-.497l2.838-2.815zm0-10.517a.59.59 0 0 1 .415-.17h14.366a.29.29 0 0 1 .207.496l-2.838 2.816a.59.59 0 0 1-.415.17H7.294a.29.29 0 0 1-.207-.496l2.838-2.816zm14.988 5.259a.59.59 0 0 0-.415-.17H10.132a.29.29 0 0 0-.207.496l2.838 2.816a.59.59 0 0 0 .415.17h14.366a.29.29 0 0 0 .207-.496l-2.838-2.816z" fill="#fff"/></svg>
